Coordinates
version=1
nRows=27
nColumns=12
inDegrees=yes

Units are S.I. units (second, meters, Newtons, ...)
Angles are in degrees

endheader
time	SC_y	SC_z	SC_x	AC_y	AC_z	AC_x	GH_y	GH_z	GH_yy	EL_x	PS_y
       0.0              -37.95          9.165          42.22          54.91         -6.974          9.061          47.37         -4.085          18.65          82.91          11.51
   0.02229              -37.95          9.163          42.22          54.91         -6.974          9.057          47.36         -4.086          18.66          82.91          11.51
   0.04457              -37.94          9.161          42.22          54.91         -6.975          9.053          47.36         -4.087          18.66          82.91          11.52
   0.06686              -37.94          9.159          42.21          54.92         -6.976          9.048          47.36         -4.089          18.67          82.91          11.53
   0.08915              -37.94          9.157          42.21          54.92         -6.976          9.044          47.35         -4.091          18.68          82.92          11.53
    0.1114              -37.94          9.154          42.21          54.92         -6.977          9.039          47.35         -4.092          18.69          82.92          11.54
    0.1337              -37.94          9.152           42.2          54.92         -6.978          9.034          47.34         -4.094           18.7          82.92          11.55
     0.156              -37.94          9.149           42.2          54.92         -6.979          9.028          47.33         -4.096          18.71          82.92          11.56
    0.1783              -37.94          9.146          42.19          54.93          -6.98          9.022          47.33         -4.098          18.72          82.92          11.57
    0.2006              -37.93          9.143          42.19          54.93         -6.981          9.016          47.32           -4.1          18.73          82.92          11.58
    0.2229              -37.93          9.139          42.18          54.93         -6.982          9.009          47.31         -4.103          18.74          82.93           11.6
    0.2451              -37.93          9.135          42.18          54.93         -6.984          9.002          47.31         -4.105          18.75          82.93          11.61
    0.2674              -37.93          9.131          42.17          54.94         -6.985          8.994           47.3         -4.108          18.77          82.93          11.62
    0.2897              -37.92          9.127          42.17          54.94         -6.987          8.985          47.29         -4.111          18.78          82.93          11.64
     0.312              -37.92          9.122          42.16          54.94         -6.988          8.976          47.28         -4.114           18.8          82.93          11.65
    0.3343              -37.92          9.117          42.15          54.95          -6.99          8.966          47.27         -4.118          18.82          82.94          11.67
    0.3566              -37.91          9.112          42.14          54.95         -6.992          8.955          47.26         -4.122          18.84          82.94          11.69
    0.3789              -37.91          9.106          42.13          54.96         -6.994          8.943          47.25         -4.126          18.86          82.94          11.71
    0.4012              -37.91          9.099          42.12          54.96         -6.996           8.93          47.23          -4.13          18.88          82.95          11.74
    0.4234               -37.9          9.092          42.11          54.97         -6.999          8.916          47.22         -4.135          18.91          82.95          11.76
    0.4457               -37.9          9.084           42.1          54.97         -7.001          8.901           47.2         -4.141          18.94          82.96          11.79
     0.468              -37.89          9.076          42.09          54.98         -7.004          8.883          47.18         -4.147          18.97          82.96          11.82
    0.4903              -37.89          9.066          42.07          54.99         -7.007          8.864          47.16         -4.154           19.0          82.97          11.85
    0.5126              -37.88          9.055          42.06           55.0         -7.011          8.843          47.14         -4.161          19.04          82.97          11.89
    0.5349              -37.87          9.044          42.04          55.01         -7.015           8.82          47.12         -4.169          19.08          82.98          11.93
    0.5572              -37.86           9.03          42.02          55.02          -7.02          8.794          47.09         -4.178          19.13          82.98          11.98
    0.5794              -37.85          9.016           42.0          55.03         -7.025          8.765          47.06         -4.189          19.18          82.99          12.03
